<?xml version="1.0" standalone="no"?>
<!DOCTYPE svg PUBLIC "-//W3C//DTD SVG 20010904//EN"
 "http://www.w3.org/TR/2001/REC-SVG-20010904/DTD/svg10.dtd">
<svg version="1.0" xmlns="http://www.w3.org/2000/svg"
 width="1488.000000pt" height="1488.000000pt" viewBox="0 0 1488.000000 1488.000000"
 preserveAspectRatio="xMidYMid meet">
<metadata>
Created by potrace 1.11, written by Peter Selinger 2001-2013
</metadata>
<g transform="translate(0.000000,1488.000000) scale(0.100000,-0.100000)"
fill="#000000" stroke="none">
<path d="M6630 11897 c0 -11 62 -101 72 -105 4 -2 8 -8 8 -12 0 -12 89 -142
108 -157 11 -9 297 -12 1243 -12 676 0 1229 2 1229 5 0 3 -8 16 -17 29 -10 12
-25 33 -33 45 -8 13 -32 45 -52 71 -21 27 -38 51 -38 54 0 3 -5 11 -10 18 -6
7 -22 25 -35 42 l-25 30 -1225 0 c-674 0 -1225 -4 -1225 -8z"/>
<path d="M6092 11833 c-18 -23 -32 -46 -32 -52 0 -5 -3 -11 -8 -13 -11 -5
-102 -135 -102 -146 0 -6 -3 -12 -8 -14 -11 -4 -82 -106 -82 -117 0 -5 -4 -11
-8 -13 -11 -4 -132 -176 -132 -188 0 -5 -6 -13 -13 -17 -7 -4 -42 -51 -77
-103 -35 -52 -66 -97 -70 -100 -4 -3 -10 -12 -13 -20 -4 -8 -32 -49 -63 -90
-30 -41 -57 -83 -61 -92 -3 -10 -9 -18 -14 -18 -5 0 -9 -6 -9 -14 0 -8 -4 -16
-9 -18 -5 -1 -44 -55 -87 -118 -77 -113 -87 -127 -111 -154 -7 -8 -9 -16 -6
-20 3 -3 -2 -8 -11 -12 -9 -3 -16 -12 -16 -20 0 -8 -4 -14 -10 -14 -5 0 -10
-5 -10 -10 0 -6 -5 -16 -10 -23 -14 -17 -90 -124 -125 -177 -16 -25 -32 -47
-35 -50 -3 -3 -19 -25 -35 -50 -17 -25 -33 -46 -37 -48 -5 -2 -8 -10 -8 -17 0
-7 -4 -15 -8 -17 -4 -1 -32 -39 -62 -83 -30 -44 -57 -82 -60 -85 -3 -3 -9 -12
-15 -21 -29 -48 -132 -196 -147 -211 -10 -10 -18 -22 -18 -26 0 -5 -8 -17 -18
-28 -10 -10 -29 -37 -42 -59 -13 -22 -28 -44 -32 -50 -25 -31 -56 -75 -93
-129 -39 -57 -182 -263 -205 -296 -12 -17 -304 -437 -320 -460 -31 -46 -111
-157 -120 -167 -5 -7 -10 -15 -10 -18 0 -3 -25 -40 -55 -80 -30 -41 -55 -77
-55 -80 0 -3 -5 -11 -11 -18 -9 -11 -113 -158 -142 -201 -6 -10 -20 -29 -29
-41 -10 -13 -18 -28 -18 -33 0 -5 -7 -12 -15 -16 -8 -3 -15 -12 -15 -20 0 -8
-3 -16 -7 -18 -5 -1 -26 -30 -48 -63 -22 -33 -43 -62 -46 -65 -3 -3 -35 -47
-70 -99 -35 -52 -83 -122 -107 -155 -24 -34 -55 -79 -70 -101 -15 -22 -31 -45
-37 -51 -5 -6 -16 -20 -22 -30 -36 -54 -133 -196 -166 -241 -20 -29 -37 -57
-37 -63 0 -5 -4 -10 -8 -10 -5 0 -30 -34 -58 -75 -27 -41 -52 -75 -56 -75 -5
0 -8 -4 -8 -10 0 -9 -142 -216 -169 -247 -6 -7 -11 -16 -11 -22 0 -5 -3 -11
-7 -13 -5 -1 -26 -30 -48 -63 -22 -33 -42 -62 -46 -65 -3 -3 -41 -57 -83 -120
-43 -63 -82 -116 -87 -118 -5 -2 -9 -8 -9 -12 0 -8 -87 -139 -100 -150 -3 -3
-21 -29 -39 -58 -19 -30 -39 -59 -46 -65 -6 -7 -21 -29 -34 -50 -13 -21 -28
-43 -34 -50 -7 -7 -30 -39 -52 -72 -22 -33 -43 -62 -46 -65 -4 -3 -15 -19 -25
-36 -19 -32 -136 -200 -152 -220 -5 -5 -15 -21 -22 -35 -7 -13 -16 -26 -20
-29 -4 -3 -43 -57 -86 -120 -43 -63 -86 -124 -96 -134 -10 -11 -18 -25 -18
-32 0 -7 -4 -14 -8 -16 -4 -1 -18 -18 -31 -35 l-22 -33 2176 0 2177 0 -34 36
c-18 20 -42 46 -54 58 -64 66 -170 221 -236 346 -42 78 -114 246 -123 288 -2
9 -13 51 -25 92 -11 41 -22 93 -25 115 -3 22 -7 51 -10 65 -7 32 -17 164 -17
215 0 53 11 214 16 242 3 11 8 43 12 70 9 53 11 62 14 66 1 1 3 9 5 17 2 8 6
26 9 40 24 110 116 324 177 412 11 14 19 31 19 37 0 6 4 11 9 11 5 0 14 14 21
30 7 17 16 30 21 30 5 0 9 5 9 10 0 6 26 50 57 98 32 48 62 95 68 104 50 85
111 178 117 178 5 0 8 5 8 10 0 6 40 72 88 148 49 75 99 155 112 177 14 22 28
45 32 50 9 11 19 26 133 205 44 68 85 132 90 142 6 9 55 88 111 175 56 87 125
196 155 243 30 47 57 87 62 88 4 2 7 8 7 13 0 6 23 43 50 84 28 41 50 79 50
85 0 5 5 10 10 10 6 0 10 5 10 11 0 6 13 29 29 52 16 23 46 69 67 102 20 33
56 89 79 125 47 73 94 147 110 172 61 99 90 144 97 146 4 2 8 8 8 13 0 6 18
37 40 69 22 32 40 64 40 69 0 6 4 11 8 11 5 0 15 12 23 27 16 31 73 122 87
138 4 6 17 26 28 45 10 19 25 41 32 48 6 7 12 17 12 22 0 5 6 15 13 22 10 11
53 78 110 173 7 11 15 22 18 25 4 3 16 22 27 44 20 37 20 39 3 65 -71 102
-211 325 -211 335 0 8 60 12 71 5 6 -4 25 -3 40 1 19 6 29 5 29 -2 0 -7 4 -7
13 1 8 6 16 8 19 6 9 -9 82 -11 105 -3 12 4 25 3 28 -1 3 -5 20 -6 38 -2 18 5
41 6 52 4 11 -2 42 -4 68 -4 49 -1 77 13 77 37 0 8 4 14 8 14 5 0 15 12 23 28
18 35 52 85 63 93 5 4 7 12 4 19 -5 16 -38 23 -38 9 0 -6 -5 -7 -12 -3 -7 4
-171 8 -364 8 -255 1 -356 4 -365 13 -14 14 -36 52 -45 76 -3 9 -10 17 -14 17
-5 0 -21 21 -36 48 -15 26 -30 49 -33 52 -8 7 -94 139 -109 166 -11 21 -10 22
51 22 34 0 71 0 82 1 11 0 175 0 365 -2 203 -2 350 1 358 6 6 5 12 6 12 1 0
-11 320 -11 338 -1 6 5 12 4 12 0 0 -8 58 -9 64 -1 24 33 66 101 66 109 0 5 5
9 10 9 6 0 10 7 10 15 0 8 5 15 12 15 6 0 9 3 5 6 -3 4 1 14 10 23 16 15 14
16 -23 21 -21 3 -41 2 -42 -3 -2 -4 -8 -4 -14 -1 -14 9 -178 11 -178 3 0 -3
-20 -3 -45 1 -25 4 -48 4 -50 0 -2 -4 -24 -4 -47 -1 -24 4 -56 4 -73 1 -16 -4
-40 -3 -52 2 -14 4 -23 4 -23 -3 0 -6 -5 -7 -11 -3 -14 8 -179 11 -179 3 0 -3
-20 -3 -45 1 -25 4 -48 4 -50 0 -2 -4 -24 -4 -47 -1 -24 4 -56 4 -73 1 -16 -4
-40 -3 -52 2 -14 4 -23 4 -23 -3 0 -6 -5 -7 -11 -3 -14 8 -179 11 -179 3 0 -3
-20 -3 -45 1 -25 4 -48 3 -51 -2 -3 -4 -9 -6 -14 -3 -5 3 -35 5 -67 5 -54 -1
-83 0 -109 2 -10 1 -103 127 -113 153 -2 5 -7 12 -11 15 -3 3 -26 34 -50 70
-24 36 -45 67 -47 70 -2 2 -107 5 -232 5 l-227 1 -32 -43z"/>
<path d="M7003 11286 c7 -11 16 -25 20 -30 4 -6 43 -63 86 -126 l78 -115 1251
-1 c689 0 1252 3 1252 8 0 4 -45 69 -100 145 l-101 138 -1248 1 -1249 1 11
-21z"/>
<path d="M7378 10703 c6 -3 12 -8 12 -13 0 -5 27 -49 60 -99 33 -50 60 -95 60
-99 0 -5 9 -17 20 -27 11 -10 20 -24 20 -32 0 -7 3 -14 8 -14 25 -4 2552 -3
2552 1 0 6 -88 131 -127 179 -15 19 -39 51 -52 72 l-25 38 -1270 -1 c-699 0
-1265 -2 -1258 -5z"/>
<path d="M8046 10122 c-4 -4 -62 -7 -129 -8 -67 -1 -128 -2 -134 -3 -7 0 13
-40 46 -88 32 -49 64 -99 71 -113 7 -14 16 -27 19 -30 3 -3 12 -17 20 -32 12
-22 22 -28 50 -29 47 -1 2497 -1 2534 0 27 1 27 2 12 18 -9 9 -27 32 -40 52
-13 20 -55 79 -93 131 l-69 95 -169 1 c-93 1 -173 3 -179 4 -5 1 -14 1 -20 0
-24 -7 -1417 -4 -1422 3 -2 4 -12 3 -21 -1 -21 -10 -442 -9 -458 0 -6 4 -14 4
-18 0z"/>
<path d="M8164 9519 c-2 -3 18 -38 44 -76 26 -38 52 -77 57 -86 6 -8 27 -40
47 -70 l37 -54 1305 0 c718 0 1306 3 1306 7 0 4 -16 27 -35 51 -19 24 -35 49
-35 56 0 6 -4 13 -9 15 -5 2 -36 39 -68 83 l-59 80 -1293 0 c-711 0 -1295 -3
-1297 -6z"/>
<path d="M8571 8888 c10 -14 19 -31 19 -36 0 -6 4 -12 8 -14 5 -1 41 -51 81
-110 l73 -107 197 0 c108 0 201 -1 206 -2 6 -1 15 0 20 1 12 2 206 2 220 0 6
-1 14 -2 20 0 11 2 206 2 220 -1 6 -1 15 0 20 1 12 2 206 2 220 0 6 -1 14 -2
20 0 11 2 206 2 220 -1 6 -1 15 0 20 1 12 2 206 2 220 0 6 -1 14 -2 20 0 11 2
206 2 220 -1 6 -1 15 0 20 1 12 2 206 2 220 0 6 -1 14 -2 20 0 11 2 206 2 220
-1 6 -1 15 0 20 1 23 5 213 3 221 -3 6 -3 16 -2 23 2 7 4 24 6 38 3 20 -4 24
-2 18 9 -7 11 -187 261 -202 279 -2 2 -597 4 -1322 5 l-1319 0 19 -27z"/>
<path d="M7521 8698 c-128 -137 -213 -311 -228 -468 -2 -30 -6 -57 -9 -59 -2
-2 -27 14 -56 36 -96 73 -221 147 -232 136 -3 -4 -6 -1 -6 5 0 7 -3 11 -7 10
-5 -1 -21 4 -38 11 -46 20 -176 59 -215 66 -103 17 -120 17 -121 4 -5 -48 -3
-108 4 -134 4 -16 9 -47 12 -69 3 -21 8 -43 12 -50 4 -6 8 -17 10 -25 1 -8 16
-44 34 -80 54 -112 127 -206 235 -302 38 -34 150 -109 163 -109 5 0 11 -4 13
-8 5 -15 237 -111 288 -120 3 -1 24 -4 48 -8 23 -4 46 -12 49 -18 12 -18 9
-496 -2 -496 -21 0 -30 16 -32 55 -6 102 -75 250 -157 339 -48 51 -138 122
-166 131 -16 5 -64 -19 -90 -45 -14 -14 -122 -91 -135 -96 -9 -4 -17 1 -21 12
-37 121 -77 190 -155 271 l-51 53 -67 -52 c-36 -29 -68 -55 -71 -58 -3 -3 -39
-33 -80 -65 -41 -32 -77 -61 -80 -65 -3 -3 -21 -17 -40 -31 -19 -15 -45 -35
-56 -45 -21 -18 -53 -44 -138 -111 -23 -17 -50 -40 -62 -50 -11 -10 -45 -37
-75 -60 l-55 -42 -3 -168 c-1 -92 -4 -215 -5 -273 -1 -58 2 -114 8 -125 5 -11
56 -78 113 -150 134 -167 123 -153 163 -205 19 -25 37 -47 40 -50 3 -3 18 -23
35 -45 16 -22 42 -53 57 -70 15 -16 28 -33 28 -36 0 -3 10 -17 21 -30 12 -13
40 -49 63 -79 22 -30 44 -57 47 -60 4 -3 24 -27 44 -55 21 -27 42 -51 47 -53
4 -2 8 -8 8 -14 0 -5 6 -15 13 -22 6 -7 23 -27 37 -45 14 -18 33 -42 44 -54
10 -12 37 -47 60 -77 22 -30 48 -63 56 -72 12 -14 15 -55 14 -247 0 -227 0
-231 20 -232 61 -2 129 1 135 6 3 4 6 117 7 251 l0 245 -85 109 c-48 59 -130
164 -183 232 -53 68 -106 134 -117 148 -11 14 -49 61 -83 105 -35 45 -69 88
-76 95 -36 44 -235 300 -245 317 -4 7 44 90 118 202 90 137 137 198 168 220
23 17 47 34 52 38 6 5 42 30 80 57 39 27 84 60 100 73 41 32 32 25 205 149 85
60 161 113 167 118 16 9 66 -40 116 -111 37 -53 70 -146 71 -198 l1 -30 -85
-1 c-224 -3 -328 -33 -449 -130 -203 -164 -215 -457 -26 -623 82 -71 191 -124
285 -136 14 -2 25 -4 25 -5 0 -6 1016 -4 1055 1 78 12 115 22 180 52 224 103
330 340 240 534 -11 24 -20 47 -20 52 0 6 -33 43 -72 83 -120 122 -236 167
-436 170 -46 1 -85 5 -88 9 -11 18 30 151 62 206 44 72 93 124 166 174 61 42
83 47 107 25 9 -8 29 -26 44 -40 15 -14 32 -26 37 -26 4 0 10 -3 12 -8 2 -4
26 -25 53 -47 28 -22 52 -42 55 -45 3 -3 61 -50 130 -105 69 -55 127 -102 130
-105 3 -3 41 -35 85 -70 44 -36 86 -71 94 -78 11 -11 14 -60 13 -249 -1 -248
0 -245 -51 -302 -11 -13 -21 -27 -21 -30 0 -3 -18 -25 -40 -49 -21 -23 -42
-52 -45 -63 -4 -11 -9 -18 -12 -15 -3 3 -26 -23 -51 -57 -25 -34 -50 -67 -56
-74 -12 -14 -16 -19 -66 -83 -48 -62 -61 -78 -91 -114 -55 -66 -276 -353 -286
-371 -7 -11 -8 -28 -3 -41 5 -12 6 -25 3 -28 -3 -3 -7 -103 -7 -221 l-2 -215
36 -1 c73 -3 112 1 124 10 8 6 11 75 10 228 -1 120 2 225 7 234 5 9 18 27 29
40 23 27 141 178 180 229 25 33 220 282 243 310 7 8 23 31 37 50 13 19 29 40
35 45 7 6 27 30 45 55 19 25 59 76 89 115 l55 70 1 288 0 288 -25 22 c-14 12
-45 38 -70 57 -25 19 -49 40 -55 45 -5 6 -44 38 -85 71 -41 32 -77 61 -80 64
-3 3 -27 23 -55 44 -27 22 -54 44 -60 50 -5 6 -26 23 -45 37 -19 15 -45 35
-56 45 -12 11 -36 30 -54 44 -18 14 -38 30 -44 35 -6 6 -36 30 -66 55 -30 25
-56 48 -58 53 -2 4 -8 7 -13 7 -5 0 -18 9 -29 20 -18 18 -22 18 -57 4 -53 -22
-147 -67 -153 -74 -3 -3 -24 -18 -48 -34 -66 -45 -157 -151 -197 -230 -21 -43
-43 -107 -54 -161 l-18 -90 -37 -3 c-35 -3 -36 -2 -37 30 -4 138 -3 452 1 458
3 5 18 11 33 14 15 3 38 8 52 11 14 3 62 17 108 31 266 84 505 273 607 479 8
17 18 32 21 35 3 3 18 43 33 89 27 82 39 150 39 221 0 67 -2 71 -20 62 -10 -5
-36 -10 -58 -11 -84 -6 -296 -78 -388 -133 -26 -15 -50 -28 -53 -28 -3 0 -10
-5 -17 -10 -38 -31 -131 -100 -137 -100 -3 0 -7 15 -8 33 -7 112 -91 336 -143
383 -11 10 -19 21 -19 26 0 4 -8 16 -17 26 -10 10 -32 33 -48 52 -59 67 -58
67 -114 8z m72 -205 c4 -10 17 -36 30 -58 50 -85 71 -177 71 -310 1 -124 -7
-166 -45 -252 -10 -24 -19 -45 -19 -48 0 -2 -13 -24 -28 -49 l-28 -44 -26 42
c-28 48 -78 167 -85 205 -14 82 -14 211 1 276 23 102 24 106 37 121 6 8 9 14
6 14 -4 0 5 21 18 46 40 76 57 90 68 57z m757 -281 c-9 -26 -21 -57 -28 -68
-6 -12 -8 -24 -5 -28 3 -3 1 -6 -5 -6 -7 0 -12 -5 -12 -11 0 -44 -162 -225
-261 -292 -68 -46 -191 -107 -201 -101 -5 3 -8 0 -8 -5 0 -6 -9 -11 -19 -11
-11 0 -23 -5 -26 -10 -11 -18 -24 0 -19 28 5 32 10 44 60 145 21 42 42 77 46
77 4 0 8 5 8 11 0 23 117 139 195 194 85 60 214 125 254 128 12 1 21 6 21 12
0 5 4 4 8 -3 5 -7 2 -33 -8 -60z m-1493 42 c173 -75 236 -115 332 -213 41 -42
79 -83 86 -91 38 -48 95 -170 120 -257 l6 -22 -68 25 c-79 29 -183 84 -235
125 -20 16 -42 29 -48 29 -6 0 -8 5 -5 10 3 6 2 10 -3 10 -15 0 -85 71 -130
131 -46 62 -94 154 -85 163 4 3 2 6 -4 6 -6 0 -14 16 -17 36 -4 19 -10 42 -13
50 -7 19 17 18 64 -2z m-175 -774 c28 -50 36 -81 44 -155 4 -49 4 -51 -33 -75
-21 -14 -40 -27 -43 -30 -3 -3 -67 -48 -144 -100 -76 -52 -144 -101 -151 -107
-8 -7 -17 -13 -22 -13 -7 -1 -83 -110 -92 -133 -2 -6 -8 -16 -13 -22 -4 -5
-27 -39 -51 -75 -23 -36 -46 -68 -50 -71 -5 -3 -8 -9 -8 -13 3 -24 -2 -25 -8
-1 -4 17 -6 117 -6 224 1 176 3 195 20 207 10 7 30 24 44 36 37 33 82 69 121
98 18 14 40 32 49 41 9 8 39 33 66 55 28 21 52 41 55 44 3 3 28 23 55 44 28
21 57 46 65 55 24 25 64 50 71 43 4 -4 18 -27 31 -52z m1448 -620 c67 -18 136
-56 172 -95 50 -52 69 -75 62 -75 -4 0 -2 -6 4 -12 32 -41 30 -154 -4 -223
-46 -94 -108 -143 -231 -180 -32 -10 -167 -12 -575 -10 -293 1 -545 5 -560 8
-103 27 -201 104 -238 189 -69 160 19 319 215 393 11 4 43 9 70 12 28 3 51 6
52 6 1 1 223 1 495 1 353 -1 506 -5 538 -14z"/>
<path d="M8936 8320 c23 -40 38 -63 57 -84 9 -11 17 -26 17 -33 0 -7 5 -13 10
-13 6 0 10 -4 10 -9 0 -15 94 -150 100 -143 7 10 292 8 308 -2 7 -4 12 -4 12
1 0 10 222 9 238 -1 7 -4 12 -4 12 1 0 10 522 9 538 -1 7 -4 12 -4 12 1 0 10
382 9 398 -1 7 -4 12 -4 12 1 0 10 361 9 378 -1 7 -4 12 -4 12 1 0 10 292 9
308 -1 7 -4 12 -4 12 1 0 9 357 9 366 0 4 -3 14 -2 23 2 9 5 21 11 26 13 14 4
10 13 -38 77 -24 31 -51 69 -61 84 -9 16 -24 36 -32 45 -7 9 -24 32 -37 51
l-23 34 -1336 1 -1336 1 14 -25z"/>
<path d="M9330 7728 c0 -9 3 -18 8 -20 10 -4 72 -97 72 -107 0 -5 3 -11 8 -13
4 -1 27 -32 51 -68 25 -36 46 -67 49 -70 4 -5 2722 -7 2722 -2 0 2 -20 31 -45
63 -25 33 -45 64 -45 69 0 6 -4 10 -10 10 -5 0 -10 6 -10 13 0 7 -9 19 -20 27
-11 8 -20 19 -20 25 0 5 -11 23 -24 38 -14 16 -27 34 -29 40 -3 9 -351 12
-1355 12 -1255 0 -1352 -1 -1352 -17z"/>
<path d="M9725 7139 c-2 -3 5 -18 16 -35 19 -27 42 -74 76 -154 9 -19 21 -48
29 -65 l13 -30 1405 -1 c999 0 1403 3 1399 10 -10 17 -86 120 -92 126 -3 3
-20 25 -36 50 -17 25 -36 51 -42 58 -7 7 -17 21 -22 30 -9 16 -101 17 -1376
17 -752 0 -1368 -2 -1370 -6z"/>
<path d="M9938 6549 c-6 -4 -8 -18 -5 -31 8 -29 18 -133 20 -203 l2 -50 1568
-2 1567 -3 -11 23 c-7 12 -15 24 -19 27 -3 3 -35 46 -71 95 -35 50 -67 92 -71
93 -5 2 -8 8 -8 14 0 5 -7 17 -16 26 -15 15 -141 16 -1481 17 -806 0 -1470 -3
-1475 -6z"/>
<path d="M9917 5952 c-10 -2 -16 -9 -15 -15 3 -18 -23 -120 -35 -134 -5 -7 -7
-13 -3 -13 3 0 -3 -24 -15 -52 -11 -29 -22 -60 -23 -68 -4 -13 205 -15 1835
-14 1011 0 1841 3 1844 6 3 3 -16 35 -42 71 -64 88 -133 188 -144 207 -7 13
-206 15 -1696 15 -928 0 -1696 -1 -1706 -3z"/>
<path d="M9667 5359 c-10 -6 -28 -27 -41 -48 -28 -44 -137 -173 -180 -213 -17
-15 -27 -30 -24 -34 7 -6 4517 -9 4523 -2 3 3 -120 175 -155 216 -11 12 -20
25 -20 28 0 12 -48 63 -54 57 -10 -10 -120 -10 -133 0 -7 5 -13 6 -13 1 0 -11
-231 -11 -248 0 -7 4 -12 4 -12 -1 0 -10 -292 -9 -308 1 -7 4 -12 4 -12 -1 0
-10 -282 -9 -298 1 -7 4 -12 4 -12 -1 0 -4 -16 -8 -35 -8 -19 0 -35 4 -35 8 0
5 -5 5 -12 1 -17 -11 -121 -11 -135 -1 -7 5 -13 6 -13 1 0 -11 -221 -11 -238
0 -7 4 -12 4 -12 -1 0 -10 -132 -9 -148 1 -7 4 -12 4 -12 -1 0 -4 -16 -8 -35
-8 -19 0 -35 4 -35 8 0 5 -5 5 -12 1 -17 -11 -121 -11 -135 -1 -7 5 -13 6 -13
1 0 -11 -221 -11 -238 0 -7 4 -12 4 -12 -1 0 -10 -142 -9 -158 1 -7 4 -12 4
-12 -1 0 -10 -292 -9 -308 1 -7 4 -12 4 -12 -1 0 -4 -49 -8 -110 -8 -60 0
-110 4 -110 8 0 5 -5 5 -12 1 -17 -11 -121 -11 -135 -1 -7 5 -13 6 -13 1 0
-11 -221 -11 -238 0 -7 4 -12 4 -12 -1 0 -4 -16 -8 -35 -8 -19 0 -35 4 -35 8
0 5 -5 5 -12 1 -17 -11 -121 -11 -135 -1 -7 5 -13 6 -13 1 0 -11 -221 -11
-238 0 -7 4 -12 4 -12 -1 0 -4 -16 -8 -35 -8 -19 0 -35 4 -35 8 0 5 -5 5 -12
1 -15 -9 -181 -11 -188 -2 -3 3 -13 2 -23 -3z"/>
<path d="M4017 4654 c-1 -1 -33 -4 -72 -8 -38 -3 -92 -8 -120 -11 -48 -5 -66
-8 -130 -21 -16 -3 -39 -7 -50 -9 -11 -1 -20 -3 -20 -4 0 -2 -7 -4 -15 -6 -8
-1 -35 -8 -60 -16 -25 -7 -51 -14 -58 -15 -26 -5 -177 -68 -232 -97 -106 -56
-237 -171 -302 -264 -113 -165 -151 -404 -99 -625 23 -97 102 -230 183 -306
182 -172 466 -292 753 -318 143 -13 351 -18 366 -8 4 2 11 0 14 -6 5 -8 11 -8
20 0 9 8 15 8 20 0 3 -6 10 -8 14 -5 5 2 98 7 207 10 234 7 320 11 429 20 44
3 105 8 135 10 78 6 168 14 215 20 22 2 72 7 110 11 39 3 72 7 74 10 6 6 5
904 -2 910 -4 5 -1091 9 -1228 5 l-27 -1 2 -177 1 -178 245 -2 c135 -1 248 -2
253 -2 4 -1 7 -57 7 -125 0 -138 4 -129 -72 -140 -52 -8 -193 -18 -263 -20
-83 -2 -247 19 -277 35 -10 5 -18 8 -18 5 0 -9 -163 54 -204 79 -46 27 -106
79 -106 90 0 4 -8 15 -18 24 -54 49 -85 144 -83 256 0 44 3 91 6 105 12 61 18
85 26 100 4 8 15 31 24 51 27 61 123 153 195 187 82 38 159 64 170 57 5 -3 11
-1 15 4 6 11 282 13 299 3 5 -3 25 -6 45 -8 111 -10 226 -82 247 -154 6 -20
17 -35 29 -37 32 -6 112 -6 123 1 6 3 22 2 36 -4 14 -5 26 -6 26 -2 0 5 12 7
28 6 15 -2 44 -5 65 -7 21 -2 40 -1 42 2 4 8 114 5 122 -3 3 -3 13 -1 23 4 10
5 20 6 24 3 8 -8 102 -7 115 1 5 3 21 2 35 -4 14 -5 26 -6 26 -1 0 4 12 6 27
3 l26 -5 -7 73 c-3 40 -10 78 -13 84 -4 6 -8 17 -10 25 -5 38 -53 112 -108
166 -70 69 -144 112 -245 141 -32 9 -147 34 -180 40 -19 3 -41 7 -49 10 -8 3
-40 7 -70 10 -31 2 -72 7 -91 10 -83 12 -582 28 -593 18z"/>
<path d="M10406 4653 c-1 -2 -27 -5 -57 -8 -70 -6 -123 -13 -184 -25 -27 -6
-61 -12 -75 -15 -80 -15 -164 -41 -230 -71 -76 -36 -172 -93 -178 -106 -2 -5
-8 -6 -13 -2 -5 3 -9 -1 -9 -9 0 -7 -11 -20 -25 -27 -71 -38 -187 -206 -211
-306 -4 -16 -9 -33 -13 -39 -3 -5 -6 -14 -7 -20 -1 -5 -7 -44 -13 -85 -12 -77
-15 -232 -6 -285 3 -16 7 -39 9 -50 9 -51 58 -178 90 -232 102 -173 333 -335
543 -378 167 -35 234 -43 421 -50 62 -2 117 -7 122 -10 6 -4 10 -1 10 5 0 8 6
8 20 0 14 -8 20 -8 20 0 0 8 6 8 20 0 14 -8 20 -8 20 0 0 8 6 8 20 0 11 -6 20
-7 20 -3 0 4 51 8 113 9 103 0 152 4 292 19 176 20 362 81 471 156 57 38 144
125 144 143 0 7 8 21 18 32 9 11 19 26 21 34 2 8 10 38 18 65 7 28 12 68 11
90 l-3 40 -372 0 -373 0 -11 -30 c-7 -16 -12 -33 -13 -36 -1 -7 -32 -50 -56
-78 -18 -21 -83 -55 -125 -65 -103 -25 -303 -34 -363 -17 -18 5 -35 10 -37 10
-5 1 -9 2 -22 5 -31 8 -93 40 -93 47 0 5 -4 9 -10 9 -19 0 -95 90 -102 120 -2
8 -6 17 -10 20 -4 3 -9 18 -12 33 -2 14 -7 30 -10 35 -11 19 -20 113 -20 212
1 167 18 258 61 324 78 119 207 174 408 174 218 0 364 -70 390 -185 5 -27 12
-33 33 -34 34 -1 701 -1 725 0 13 1 17 10 17 44 0 119 -64 235 -176 317 -47
35 -214 124 -214 115 0 -2 -16 3 -35 11 -20 8 -40 12 -45 9 -6 -4 -10 -1 -10
5 0 7 -6 10 -12 7 -7 -2 -23 -1 -35 4 -25 9 -167 40 -203 44 -14 1 -50 6 -80
10 -30 4 -71 9 -90 12 -43 5 -480 10 -484 6z"/>
<path d="M13228 4655 c-2 -2 -37 -5 -78 -9 -100 -8 -186 -19 -240 -31 -24 -6
-55 -12 -95 -20 -11 -2 -58 -15 -105 -30 -47 -14 -92 -27 -100 -30 -8 -2 -16
-4 -17 -5 -2 -2 -6 -3 -10 -4 -21 -5 -172 -83 -209 -108 -68 -46 -214 -214
-214 -246 0 -6 -4 -12 -8 -14 -9 -4 -44 -78 -61 -129 -39 -121 -47 -314 -17
-429 29 -112 99 -241 174 -317 100 -102 154 -141 297 -212 77 -38 175 -71 260
-87 22 -4 45 -8 50 -9 10 -2 92 -13 150 -20 17 -2 99 -6 183 -9 84 -3 157 -8
162 -11 5 -3 11 -1 15 5 3 5 14 7 23 2 15 -6 46 -8 62 -3 3 1 50 4 105 6 112
5 203 12 255 20 19 3 53 7 75 10 121 16 271 74 417 161 114 69 231 184 274
269 11 22 27 52 37 66 23 35 57 131 63 183 9 64 8 196 -1 246 -4 25 -9 54 -10
65 -6 42 -46 141 -87 213 -74 128 -216 252 -375 324 -83 37 -192 76 -253 88
-25 5 -74 16 -110 24 -36 7 -87 17 -115 21 -27 3 -66 9 -85 11 -36 6 -407 13
-412 9z m327 -380 c46 -10 148 -57 163 -74 6 -8 12 -11 12 -7 0 4 22 -14 50
-40 27 -25 48 -49 47 -53 0 -3 4 -15 10 -27 15 -27 54 -123 60 -149 26 -114 6
-295 -44 -402 -25 -52 -123 -170 -123 -148 0 6 -4 5 -8 -1 -10 -16 -88 -54
-96 -47 -3 4 -6 0 -6 -7 0 -7 -3 -11 -6 -7 -3 3 -17 1 -31 -4 -63 -24 -256
-31 -358 -13 -131 23 -193 51 -262 117 -29 28 -53 56 -53 64 0 7 -3 13 -8 13
-11 0 -50 107 -62 170 -11 58 -14 164 -5 215 3 17 7 40 8 52 2 12 6 25 10 29
4 4 7 14 7 23 0 31 60 133 102 175 24 23 60 52 81 64 51 29 164 65 182 58 8
-3 15 -1 15 5 0 10 263 6 315 -6z"/>
<path d="M1012 4630 c-4 -3 -14 -18 -22 -33 -37 -68 -175 -293 -185 -299 -5
-4 -7 -8 -3 -8 6 0 -21 -48 -49 -85 -5 -6 -17 -26 -27 -45 -11 -19 -29 -51
-41 -70 -12 -19 -22 -39 -23 -44 0 -5 -4 -12 -9 -15 -5 -3 -34 -46 -63 -96
-30 -49 -58 -92 -62 -93 -4 -2 -6 -7 -3 -12 3 -5 -1 -15 -8 -22 -8 -7 -42 -61
-76 -118 -75 -125 -137 -229 -151 -250 -5 -8 -19 -31 -30 -50 -11 -19 -30 -51
-43 -71 -27 -44 -114 -187 -130 -214 -7 -11 -19 -31 -28 -45 -8 -14 -25 -41
-37 -61 l-22 -37 37 -1 c21 0 56 0 78 0 38 0 251 -1 278 -2 6 0 59 1 115 3 57
2 106 0 109 -5 2 -4 9 -4 16 0 14 9 57 11 62 2 9 -14 56 5 73 30 10 14 47 83
82 153 l65 128 490 0 490 0 74 -143 c40 -78 78 -147 83 -153 7 -10 27 -13 98
-14 30 -1 166 0 205 1 32 0 220 0 278 -1 6 -1 37 0 68 1 31 1 61 -1 67 -5 6
-3 13 -3 16 2 3 5 26 7 51 6 43 -3 46 -2 39 18 -3 12 -11 26 -15 32 -5 6 -32
49 -61 96 -28 47 -59 99 -69 115 -10 17 -24 41 -32 55 -7 14 -57 96 -110 184
-53 87 -97 160 -97 162 0 1 -13 23 -30 47 -17 25 -30 50 -30 56 0 6 -4 11 -9
11 -5 0 -12 8 -15 18 -3 9 -12 26 -19 37 -7 11 -32 54 -57 95 -25 41 -48 77
-52 78 -5 2 -8 8 -8 13 0 5 -18 38 -40 74 -22 36 -40 70 -40 75 0 6 -4 10 -10
10 -5 0 -10 7 -10 15 0 8 -4 15 -10 15 -5 0 -10 4 -10 10 0 10 -68 127 -126
217 -19 28 -34 56 -34 62 0 6 -4 11 -9 11 -5 0 -11 8 -15 18 -5 16 -18 38 -64
112 l-22 35 -430 0 c-237 0 -434 -2 -438 -5z m427 -432 c33 -74 97 -210 139
-298 49 -104 122 -261 122 -264 0 -6 -67 1 -79 8 -11 7 -12 6 -6 -5 8 -12 6
-12 -8 0 -9 7 -17 9 -17 3 0 -10 -71 -9 -89 2 -5 4 -12 3 -15 -2 -6 -10 -108
-8 -124 2 -7 4 -12 3 -12 -2 0 -10 -72 -8 -89 2 -5 4 -12 3 -15 -2 -2 -4 -31
-7 -63 -7 -45 1 -57 5 -55 16 3 12 84 179 242 502 24 48 44 87 46 87 2 0 12
-19 23 -42z"/>
<path d="M5799 4636 c-1 -1 -2 -377 -3 -837 l-2 -836 49 1 c27 1 51 -2 53 -6
3 -4 16 -3 30 2 16 7 23 7 19 0 -3 -5 0 -7 8 -4 22 8 258 10 263 2 3 -4 16 -3
30 2 14 6 23 6 20 2 -3 -5 16 -6 42 -3 26 3 72 5 102 3 106 -5 136 -1 131 18
-2 8 -3 20 -3 25 4 47 3 228 -1 232 -3 3 -3 12 0 20 3 8 6 83 7 166 l1 152
135 -2 c224 -3 320 -17 380 -57 41 -27 56 -60 66 -141 3 -22 11 -71 19 -110 8
-38 17 -86 20 -105 3 -19 8 -42 10 -50 2 -8 7 -30 10 -47 3 -18 13 -47 23 -65
17 -30 23 -33 70 -33 28 0 54 -4 57 -7 4 -4 18 -3 32 3 13 5 22 5 19 1 -3 -5
16 -6 42 -3 26 3 72 5 102 4 61 -3 56 -3 160 -3 41 0 80 0 85 -1 123 -1 255 6
255 13 0 6 -9 23 -21 39 -19 27 -71 165 -84 222 -2 12 -14 63 -25 112 -11 50
-23 104 -26 120 -8 43 -64 185 -73 185 -4 0 -17 9 -29 20 -28 27 -141 79 -217
101 -33 10 -54 18 -47 20 16 2 31 6 35 9 1 1 9 3 17 5 65 13 220 79 257 108
67 53 128 134 141 187 14 60 9 143 -12 200 -24 67 -84 147 -131 175 -126 74
-158 85 -350 120 -16 3 -50 8 -75 10 -25 3 -61 7 -80 10 -110 15 -216 17 -832
20 -373 1 -679 1 -679 1z m1211 -374 c90 -22 153 -63 174 -113 17 -42 11 -84
-14 -112 -11 -11 -20 -24 -20 -27 0 -11 -83 -48 -135 -61 -29 -7 -141 -13
-263 -15 l-213 -2 2 130 c0 71 -1 131 -4 134 -3 3 -2 18 2 32 5 15 6 32 4 39
-5 15 401 10 467 -5z"/>
<path d="M8334 4625 c-2 -5 -3 -381 -2 -835 3 -817 3 -825 23 -827 11 -1 30
-4 42 -7 13 -2 25 -2 27 2 5 8 120 6 142 -2 8 -3 14 -2 14 2 0 4 19 6 42 4 43
-3 131 -3 243 0 34 1 66 -1 72 -5 5 -3 13 -4 17 0 9 10 56 10 56 0 0 -4 5 -5
12 -1 7 5 24 7 38 6 l25 -2 0 838 0 837 -374 1 c-248 0 -375 -4 -377 -11z"/>
</g>
</svg>
